<mxfile host="app.diagrams.net" modified="2025-01-01T21:22:04.093Z" agent="Mozilla/5.0 (Windows NT 10.0; Win64; x64; rv:133.0) Gecko/20100101 Firefox/133.0" etag="VZlolHwP50M6oKt3UZzx" version="24.0.4" type="device">
  <diagram name="StrÃ¡nka-1" id="XKNu6CYzInfKynkdf6Gy">
    <mxGraphModel dx="2074" dy="1134" grid="1" gridSize="10" guides="1" tooltips="1" connect="1" arrows="1" fold="1" page="1" pageScale="1" pageWidth="827" pageHeight="1169" math="0" shadow="0">
      <root>
        <mxCell id="0" />
        <mxCell id="1" parent="0" />
        <mxCell id="KL059c6Qq9YdeAiMvhsF-1" value="&lt;b&gt;&lt;font style=&quot;font-size: 16px;&quot;&gt;Klient&lt;/font&gt;&lt;/b&gt;" style="rounded=1;whiteSpace=wrap;html=1;fillColor=#f5f5f5;fontColor=#333333;strokeColor=#666666;" vertex="1" parent="1">
          <mxGeometry x="230" y="130" width="120" height="60" as="geometry" />
        </mxCell>
        <mxCell id="KL059c6Qq9YdeAiMvhsF-8" style="edgeStyle=orthogonalEdgeStyle;rounded=0;orthogonalLoop=1;jettySize=auto;html=1;exitX=1;exitY=0.25;exitDx=0;exitDy=0;entryX=0;entryY=0.25;entryDx=0;entryDy=0;" edge="1" parent="1" source="KL059c6Qq9YdeAiMvhsF-3" target="KL059c6Qq9YdeAiMvhsF-5">
          <mxGeometry relative="1" as="geometry" />
        </mxCell>
        <mxCell id="KL059c6Qq9YdeAiMvhsF-10" style="edgeStyle=orthogonalEdgeStyle;rounded=0;orthogonalLoop=1;jettySize=auto;html=1;exitX=0.25;exitY=1;exitDx=0;exitDy=0;entryX=0.25;entryY=0;entryDx=0;entryDy=0;" edge="1" parent="1" source="KL059c6Qq9YdeAiMvhsF-3" target="KL059c6Qq9YdeAiMvhsF-4">
          <mxGeometry relative="1" as="geometry" />
        </mxCell>
        <mxCell id="KL059c6Qq9YdeAiMvhsF-3" value="&lt;font size=&quot;1&quot;&gt;&lt;b style=&quot;font-size: 16px;&quot;&gt;Server&lt;/b&gt;&lt;/font&gt;" style="rounded=1;whiteSpace=wrap;html=1;fillColor=#f5f5f5;fontColor=#333333;strokeColor=#666666;" vertex="1" parent="1">
          <mxGeometry x="230" y="310" width="120" height="60" as="geometry" />
        </mxCell>
        <mxCell id="KL059c6Qq9YdeAiMvhsF-11" style="edgeStyle=orthogonalEdgeStyle;rounded=0;orthogonalLoop=1;jettySize=auto;html=1;exitX=0.75;exitY=0;exitDx=0;exitDy=0;entryX=0.75;entryY=1;entryDx=0;entryDy=0;" edge="1" parent="1" source="KL059c6Qq9YdeAiMvhsF-4" target="KL059c6Qq9YdeAiMvhsF-3">
          <mxGeometry relative="1" as="geometry" />
        </mxCell>
        <mxCell id="KL059c6Qq9YdeAiMvhsF-4" value="&lt;font size=&quot;1&quot;&gt;&lt;b style=&quot;font-size: 16px;&quot;&gt;BPTSAT&lt;/b&gt;&lt;/font&gt;" style="rounded=1;whiteSpace=wrap;html=1;fillColor=#ffe6cc;strokeColor=#d79b00;" vertex="1" parent="1">
          <mxGeometry x="230" y="450" width="120" height="60" as="geometry" />
        </mxCell>
        <mxCell id="KL059c6Qq9YdeAiMvhsF-9" style="edgeStyle=orthogonalEdgeStyle;rounded=0;orthogonalLoop=1;jettySize=auto;html=1;exitX=0;exitY=0.75;exitDx=0;exitDy=0;entryX=1;entryY=0.75;entryDx=0;entryDy=0;" edge="1" parent="1" source="KL059c6Qq9YdeAiMvhsF-5" target="KL059c6Qq9YdeAiMvhsF-3">
          <mxGeometry relative="1" as="geometry" />
        </mxCell>
        <mxCell id="KL059c6Qq9YdeAiMvhsF-5" value="&lt;font size=&quot;1&quot;&gt;&lt;b style=&quot;font-size: 16px;&quot;&gt;OpenTripPlanner&lt;/b&gt;&lt;/font&gt;" style="rounded=1;whiteSpace=wrap;html=1;fillColor=#ffe6cc;strokeColor=#d79b00;" vertex="1" parent="1">
          <mxGeometry x="520" y="310" width="150" height="60" as="geometry" />
        </mxCell>
        <mxCell id="KL059c6Qq9YdeAiMvhsF-6" value="" style="endArrow=classic;html=1;rounded=0;entryX=0.25;entryY=0;entryDx=0;entryDy=0;exitX=0.25;exitY=1;exitDx=0;exitDy=0;" edge="1" parent="1" source="KL059c6Qq9YdeAiMvhsF-1" target="KL059c6Qq9YdeAiMvhsF-3">
          <mxGeometry width="50" height="50" relative="1" as="geometry">
            <mxPoint x="400" y="240" as="sourcePoint" />
            <mxPoint x="440" y="410" as="targetPoint" />
          </mxGeometry>
        </mxCell>
        <mxCell id="KL059c6Qq9YdeAiMvhsF-7" value="" style="endArrow=classic;html=1;rounded=0;entryX=0.75;entryY=1;entryDx=0;entryDy=0;exitX=0.75;exitY=0;exitDx=0;exitDy=0;" edge="1" parent="1" source="KL059c6Qq9YdeAiMvhsF-3" target="KL059c6Qq9YdeAiMvhsF-1">
          <mxGeometry width="50" height="50" relative="1" as="geometry">
            <mxPoint x="460" y="230" as="sourcePoint" />
            <mxPoint x="460" y="350" as="targetPoint" />
          </mxGeometry>
        </mxCell>
      </root>
    </mxGraphModel>
  </diagram>
</mxfile>
